<?xml version="1.0" encoding="UTF-8"?>
<svg id="Lager_2" data-name="Lager 2" xmlns="http://www.w3.org/2000/svg" viewBox="0 0 373.48 662.33">
  <defs>
    <style>
      .cls-1 {
        fill: none;
        stroke: #1d1b18;
        stroke-miterlimit: 10;
      }
    </style>
  </defs>
  <g id="Lager_5" data-name="Lager 5">
    <g>
      <path class="cls-1" d="M161.63,70.78c-8.07-.7-72.66-3-84.21,100.61-.11,1.01-.09,2.05.04,3.06,1.01,7.31,5.04,32.49,1.03,58.79,0,0-1.76,3.11-2.19,4.85-2.05,8.21-1.84,8.24,8.28,41.13.16.52.29,1.04.37,1.58.76,4.59,6.29,30.98,36.47,63.67.32.35.62.71.9,1.09,2.91,4.04,23.6,30.69,55.63,20.21.94-.31,1.82-.75,2.65-1.28,9.23-5.89,65.72-42.88,69.59-69.22,0,0,5.35-27.52,15.33-54.91.95-2.61.99-5.47.1-8.1-3.18-9.36-10.09-33.77-4.91-56.62.32-1.4.37-2.84.2-4.27-1.87-16.07-16.01-106.63-97.37-100.59-.63.05-1.28.05-1.91,0Z"/>
      <path class="cls-1" d="M43.4,207.55s32.76-36.49,100.75,2.49c0,0,9.95,4.56,22.8-2.9,0,0,35.66-29.85,102.41-6.22,0,0,2.9,34-30.68,45.61,0,0-54.32,22.39-72.14-15.34,0,0-14.1-27.78-30.68,4.15,0,0-12.02,19.9-43.54,14.51,0,0-50.17-8.71-48.93-42.29Z"/>
      <path class="cls-1" d="M135.86,215.02s-44.78-35.66-85.83-4.56c0,0-.41,22.39,34.83,32.34,0,0,47.68,12.44,51-27.78Z"/>
      <path class="cls-1" d="M166.95,215.43s34.83-35.24,97.02-8.29c0,0,.41,26.95-29.02,35.66,0,0-57.22,20.73-68-27.37Z"/>
      <polyline class="cls-1" points="46.62 203.95 35.9 202.8 35.14 210.07 42.79 211.22"/>
      <polyline class="cls-1" points="264.81 199.35 274.77 198.97 274.77 207.77 269.02 207.77"/>
      <path class="cls-1" d="M132.37,179.07s-31.03-24.16-54.94-7.68"/>
      <path class="cls-1" d="M179.83,177.15s53.97-25.65,76.94,4.21"/>
      <path class="cls-1" d="M138.87,193.23s13.4,26.03-8.42,69.29c0,0,25.78,21.3,42.53,2.18"/>
      <path class="cls-1" d="M172.94,265.19c-20.67-58.95-3.06-75.79-3.06-75.79"/>
      <path class="cls-1" d="M119.9,309.9s16.1-3.93,23.49-7.98c0,0,5.32,3.2,10.49,8.21,0,0,5.25-6.61,9.81-7.98.84-1.05,22.98,14.72,32.39,11.63l-12.77,3.88s-13.91-5.93-28.51-1.37c0,0-1.82,1.14-6.16-.23,0,0-10.95-5.02-21.67-1.14,0,0-3.88-.68-7.07-5.02Z"/>
      <path class="cls-1" d="M191.05,315.61s-17.23,21.5-36,17.34c-.67-.15-.92-.05-1.61,0-4.53.36-24.37.32-28.98-18.71"/>
      <path class="cls-1" d="M303.33,327.75s2.54,46.32,20.3,57.11"/>
      <path class="cls-1" d="M339.59,633.93c42.64-140.1,33.84-193.57,29.78-211.17s-17.6-21.66-17.6-21.66c-8.88-9.52-83.34-24.49-83.34-24.49"/>
      <path class="cls-1" d="M170.65,12.68S95.6-23.3,69.4,84.18c0,0-40.86,87.93-50.18,150.99,0,0-2.22,43.52,23.54,73.72,0,0,1.78,1.33-3.55,18.65,0,0-13.92,129.92-38.26,176.77,0,0-8.52,40.16,49.28,87.01,0,0-18.25-110.13,50.5-108.91,0,0,39.55-32.25,16.43-90.66,0,0-8.94-45.76-1.03-53.67"/>
      <path class="cls-1" d="M104.32,478.93s10.08,89.12,69.14,183.13"/>
      <path class="cls-1" d="M169.63,655.34s2.13,6.49-13.38-34.01c-10.12-26.42-23.17-88.76-31.02-128.93-4.19-21.41-6.9-36.52-6.9-36.52,0,0,150.19,73.15,194.86,79.92l42.87,36.15"/>
      <path class="cls-1" d="M123.65,438.75s159.77,67.26,196.32,66.58c0,0,41.29,25.72,45.35,27.75"/>
      <path class="cls-1" d="M125.23,492.4s158.18,82.31,164.5,83.1,16.19-8.69,16.19-8.69c0,0,13.82-1.58,16.98,12.63,0,0,15,28.43,14.21,32.77s-6.97,8.57,2.48,21.71l-5.38,21.01c-27.76,1.57-5.24-37.19-5.24-37.19-4.19-34.05-27.24-28.81-27.24-28.81-7.86,11-19.38,12.05-19.38,12.05-19.91,4.19-152.43-86.95-152.43-86.95"/>
      <path class="cls-1" d="M55.09,512.38s41.14,27.78,62.23,26.72"/>
      <path class="cls-1" d="M135.6,545.78s107.25,101.98,142.85,82.92c0,0,22.56-18.05,38.11-8.02l7.4,7.4"/>
      <path class="cls-1" d="M49.76,533.71s44.66,31.41,75.09,28.47"/>
      <path class="cls-1" d="M141.05,568.55s54.48,103.06,136.93,76.07c0,0,31.41-25.03,42.21,0"/>
      <path class="cls-1" d="M232.09,323.75s-17.45,63.8,2.07,83.32c28.03,28.03,10.79,79.95,10.79,79.95-20.94,41.88-36.17,0-36.17,0-1.27,43.15,34.9,20.94,34.9,20.94,54.57-38.07,24.11-124.37,24.11-124.37.63-15.23,11.42-23.48,11.42-23.48,45.05-27.92,38.71-156.73,38.71-156.73-13.32-119.29-60.06-171.94-60.06-171.94-36.34-52.9-83.48-21.95-83.48-21.95-15.83,9.72-7.92,61.17-7.92,61.17"/>
      <path class="cls-1" d="M121.74,405.27s54.01,74,112.42,1.8"/>
      <path class="cls-1" d="M134.15,418.58s-12.71-57.14-6.23-65.93"/>
      <path class="cls-1" d="M148.52,429.37s-11.58-60.53-4.18-65.16"/>
      <path class="cls-1" d="M225.48,416.86s-6.19-71.61-13.83-74.85"/>
      <path class="cls-1" d="M210.07,429.24s-.04-65.72-17.16-72.89"/>
      <path class="cls-1" d="M196.15,436.38s-1.62-62.91-14.57-72.17"/>
      <path class="cls-1" d="M169.13,437.69s-17.15-57.28-8.36-69.54"/>
      <path class="cls-1" d="M185.93,438.31s-16.61-62.06-13.83-71.08"/>
      <path class="cls-1" d="M108.64,505.43s-28.26-11.03-33.78-16.89"/>
      <line class="cls-1" x1="104.86" y1="483.82" x2="101.04" y2="481.95"/>
    </g>
  </g>
</svg>