<?xml version="1.0" encoding="UTF-8"?>
<svg id="Lager_2" data-name="Lager 2" xmlns="http://www.w3.org/2000/svg" viewBox="0 0 324.19 178.11">
  <defs>
    <style>
      .cls-1 {
        fill: none;
        stroke: #1d1b18;
        stroke-miterlimit: 10;
      }
    </style>
  </defs>
  <g id="Lager_11" data-name="Lager 11">
    <g>
      <path class="cls-1" d="M120.98,55.33s-2.56-19.13-23.48-12.51c-1.48.47-3.02.67-4.56.55-4.74-.37-15.61.37-15.44,15.14,0,0-.64,7,.85,13.36,0,0,.97,4.4,1.52,8.47.42,3.09,1.83,5.95,4.04,8.16,4.41,4.4,11.46,11.22,13.32,11.79,0,0,9.76,2.12,14.64-3.18l5.95-5.95c2.62-2.62,4.14-6.14,4.26-9.85.23-7.32.35-19.67-1.09-25.99Z"/>
      <path class="cls-1" d="M95.1,43.23s-6.79-5.73-5.94-11.03c0,0,12.09-14.64,33.94,5.3,0,0,5.73,2.97,6.15,25.03,0,0,4.03,21.21,11.24,26.52,0,0,2.55,7-3.82,29.06,0,0,4.45,26.52-11.88,49.85,0,0-1.48-9.33-7.85-15.91,0,0,6.6-46.9.86-60.89"/>
      <path class="cls-1" d="M89.16,32.2s-11.46-6.58-19.3,19.09c0,0-4.24,13.15-2.97,33.94,0,0-1.91,9.55-4.67,12.73,0,0,2.33-2.33,4.24-1.06,0,0,2.97,37.12-6.36,28,0,0,0,10.82,7.42,4.24,0,0,14.21,21.85,8.27,31.4,0,0,27.36,7,23.55-29.7,0,0-8.06-29.91-6.36-33.73"/>
      <path class="cls-1" d="M122.89,76.54s5.09,4.88,6.36-3.39c0,0,3.18-13.58-2.33-7.64,0,0-2.12,1.06-4.24,4.88"/>
      <path class="cls-1" d="M77.07,66.36l-2.21-2.31c-.79-.83-2.18-.22-2.1.92.38,5.55,1.71,16,6.43,14.12"/>
      <path class="cls-1" d="M95.74,65.72s-5.94-5.52-11.88-.64c0,0,4.88,4.45,11.88.64Z"/>
      <path class="cls-1" d="M103.8,59.99s9.55-3.61,15.7.21"/>
      <path class="cls-1" d="M96.16,60.84s-9.33-4.88-15.27,0"/>
      <path class="cls-1" d="M105.07,65.51s4.67-5.52,11.88-.85c0,0-3.82,3.61-11.88.85Z"/>
      <path class="cls-1" d="M97.65,65.08s.85,8.49-1.91,12.52c0,0,3.39,4.67,8.49-.42,0,0-4.67-5.3-2.55-15.27"/>
      <path class="cls-1" d="M101.04,89.9s-7.85.42-10.18-6.36c0,0,2.55.64,7.64.42l2.76.85,2.33-1.06s6.05-.36,7.26-1.12c0,0-2.48,6.41-9.8,7.28Z"/>
      <path class="cls-1" d="M110.84,82.63s-4.01,3.63-6.43,2.86l-3.18,1.53-2.35-1.08s-6.62.62-8.02-2.4"/>
      <path class="cls-1" d="M63.74,94.89s-20.93,8.19-31.17,10.69c0,0-16.72,27-32.1,72.36"/>
      <path class="cls-1" d="M118.13,93.53s-3.19,13.43-1.59,18.66"/>
      <path class="cls-1" d="M119.96,105.77s-14.04,28.26-15.21,29.37-4.88,4.54-4.88,4.54"/>
      <path class="cls-1" d="M165.59,62.8s3.61-8.31,9.39-8.31"/>
      <path class="cls-1" d="M157.64,68.76s-10.66,2.89-11.2,8.49"/>
      <path class="cls-1" d="M160.71,73.1s-7.77-.9-7.22,5.42c0,0,5.78-.36,7.22-5.42Z"/>
      <path class="cls-1" d="M168.48,66.96s.72-6.14,7.41-6.68c0,0-1.81,6.32-7.41,6.68Z"/>
      <path class="cls-1" d="M159.81,69.49s5.24,3.43,7.04,7.77c0,0,1.99,1.99,4.52.18,0,0,3.79-3.07,0-5.24,0,0-6.32-1.99-7.22-6.5"/>
      <path class="cls-1" d="M168.3,89.72l4.15-6.68h2.71l.72-2.53s5.96-1.63,6.86-2.71c0,0,.18,6.86-3.25,9.03,0,0-3.79,4.15-11.2,2.89Z"/>
      <path class="cls-1" d="M168.3,89.72s11.2-5.96,14.45-11.92"/>
      <path class="cls-1" d="M179.45,51.4s-3.64-10.18-16.72-15.05-24.35,5.78-24.35,5.78l8.78,7.12s14.35-11.26,32.29,2.15Z"/>
      <path class="cls-1" d="M138.38,42.14s-10.64,6.93-9.58,11.4"/>
      <path class="cls-1" d="M140.5,89.06s4.91,1.29,8.31,1.29"/>
      <path class="cls-1" d="M136.68,118.12l6.48,6.32c-1.92-10.15,14.27-20.85,14.27-20.85l-1.37-5.21"/>
      <path class="cls-1" d="M179.45,51.4l5.66,6.72.42.66,5.47,8.85c.1.16,1,4.47,1.02,4.65,0,0,1.56,12.51-1.84,19.76-3.07,6.54-12.79,7.67-13.99,7.69-.08,0-.16.01-.23.03-7.76,1.93-19.89-2.61-21.98-3.44-.21-.08-.38-.21-.51-.39-1.79-2.38-15.08-20.19-16.6-25.75,0,0-3.43-10.11,10.3-20.95"/>
      <ellipse class="cls-1" cx="156.41" cy="75.79" rx="1.72" ry="1.6"/>
      <ellipse class="cls-1" cx="172.35" cy="63.44" rx="1.59" ry="1.42"/>
      <ellipse class="cls-1" cx="89.76" cy="65.28" rx="1.92" ry="1.68"/>
      <ellipse class="cls-1" cx="111.3" cy="64.72" rx="1.99" ry="1.54"/>
      <path class="cls-1" d="M216.84,55.13s-20.91,13.05-23.4,19.18"/>
      <path class="cls-1" d="M220.48,32.49s.38-17.65,16.11-15.16c0,0,16.88-6.91,24.17,10.55,0,0,1.34,8.44,2.49,11.51,0,0,0,22.64-5.95,24.75l-7.67,6.33s-7.29,3.26-13.24,0c0,0-13.43-9.4-14.2-10.17-.44-.44-1.8-3.91-2.9-6.83-1-2.65-1.29-5.51-.84-8.31l2.02-12.68Z"/>
      <path class="cls-1" d="M236.6,17.34s-1.53-14.04,0-16.15,17.4.51,20.66,9.52c0,0,5.43,8.35,6.39,14.49,0,0,1.53,9.78-.38,14.2"/>
      <path class="cls-1" d="M236.6,1.19s-14.4-.43-19.58,12.62c0,0-5.56,7.77-5.58,20.84,0,.76.42,1.46,1.08,1.84,0,0,0,0,0,0,1.94,1.15,5.28,4.16,5.28,7.9"/>
      <path class="cls-1" d="M213.91,37.88s.35,22.3,4.99,16.19"/>
      <path class="cls-1" d="M231.98,57.07s5.03.31,8.17-1.36l1.36.73,1.68-1.47s5.24,2.1,8.38.73c0,0-.94,5.66-8.91,6.29,0,0-5.76,1.47-10.69-4.92Z"/>
      <path class="cls-1" d="M231.98,57.07s11.53,4.92,19.59-1.36"/>
      <path class="cls-1" d="M244.56,37.79s-2.1,8.91,1.36,12.89c0,0-3.98,2.93-6.92-.1,0,0,3.67-8.7.84-12.68"/>
      <path class="cls-1" d="M237.33,40.83s-5.45-3.98-10.16.52c0,0,4.4,3.67,10.16-.52Z"/>
      <path class="cls-1" d="M247.17,39.78s3.56-4.09,9.33-.73c0,0-5.87,4.09-9.33.73Z"/>
      <path class="cls-1" d="M245.71,36.43s6.5-4.3,12.05-.94"/>
      <path class="cls-1" d="M236.7,37.06s-4.4-4.09-12.57.94"/>
      <ellipse class="cls-1" cx="231.54" cy="41.18" rx="1.48" ry="1.27"/>
      <ellipse class="cls-1" cx="251.11" cy="39.7" rx="1.6" ry="1.27"/>
      <path class="cls-1" d="M263.37,46.59s6.83,2.6,6.4,11.05c0,0,1.27,5.7-.56,6.9,0,0-2.18,2.6-3.59,2.96"/>
      <path class="cls-1" d="M269.21,64.53s1.46,2.35.53,4.17c-.38.73-1.15,1.38-2.57,1.74"/>
      <path class="cls-1" d="M269.74,68.7s1.39,2.36.36,4.51c-.39.82-1.13,1.61-2.43,2.23"/>
      <path class="cls-1" d="M270.09,73.21s1.58,5.04-1.66,6.31"/>
      <path class="cls-1" d="M269.98,78.54s2.39,3.03-1.69,5.63"/>
      <path class="cls-1" d="M270.06,82.62s2.67,3.52-1.27,4.86"/>
      <path class="cls-1" d="M270.62,86.21s2.81,2.32-.63,5"/>
      <path class="cls-1" d="M261.12,58.69s-.77,3.94.49,5.7c0,0,2.32,2.39,4.5,2.46"/>
      <path class="cls-1" d="M261.61,64.39s-1.13,6.12,4.71,7.11"/>
      <path class="cls-1" d="M262.74,69.74s-1.41,5.49,3.73,6.76"/>
      <path class="cls-1" d="M263.58,75.09s-.77,4.08,3.59,4.93"/>
      <path class="cls-1" d="M264.5,78.82s-1.06,2.6,2.46,3.59"/>
      <path class="cls-1" d="M264.92,81.49s-.51,2.86.75,4.25c.43.47,1.06.78,1.99.74"/>
      <path class="cls-1" d="M265.67,85.75s-1.46,3.98,2.98,4.54"/>
      <path class="cls-1" d="M266.33,89.51s-.35,4.71,3.73,4.15l.99-.42c2.11-1.55.35-3.24.35-3.24"/>
      <path class="cls-1" d="M269.21,93.95s4.71,4.29,4.5,9.36c0,0,1.48,0,1.55-2.67,0,0,4.88.81,5.06,9.15,0,.16,0,.32,0,.49,0,8.8,6.9-12.6-8.02-17.52"/>
      <path class="cls-1" d="M269.77,57.64s-1.47,4.72-3.96,5.06"/>
      <path class="cls-1" d="M265.36,47.76s2.26,4.41.34,7.69"/>
      <path class="cls-1" d="M262.19,54.78s-.11,2.26,2.6,3.73"/>
      <path class="cls-1" d="M264.82,34.49s1.73,10.24,7.18,10.24c0,0-2.01,1.48-4.58.69-1.28-.4-2.69-1.36-4.06-3.35"/>
      <path class="cls-1" d="M268.81,45.66s.93,4.25,6.65,3.72c0,0-2.13,3.99-8.78-.53"/>
      <path class="cls-1" d="M270.14,45.92s8.78,4.25,17.15,2.79c0,0,10.37-.13,17.68,11.3s7.71,15.69,18.88,25.79"/>
      <path class="cls-1" d="M226.13,63.87s3.32,18.35,15.02,21.81,22.2-7.71,22.2-7.71"/>
      <path class="cls-1" d="M192.08,74.05s17.76-5.63,25.85,1.06c0,0,21.46,9.85,21.81,10.55s13.89,1.23,13.89,1.23c0,0,27.09,17.76,35.18,32.19"/>
      <path class="cls-1" d="M156.97,100.13s9.93,1.68,10.27,4.71l6.74-.51,4.04,3.7.48-.32.53-.35s-2.19-3.54,0-5.39c0,0,12.8-6.9,14.14-6.9s1.52,1.85,1.52,1.85c0,0,.34-5.89,3.2-8.92l-3.7-4.04s1.01-6.9-.17-10.61"/>
      <line class="cls-1" x1="178.5" y1="107.72" x2="190.98" y2="120.96"/>
      <line class="cls-1" x1="194.69" y1="96.93" x2="207.89" y2="113.43"/>
    </g>
  </g>
</svg>