<?xml version="1.0" encoding="UTF-8"?>
<svg id="Lager_2" data-name="Lager 2" xmlns="http://www.w3.org/2000/svg" viewBox="0 0 362.29 398.2">
  <defs>
    <style>
      .cls-1 {
        fill: none;
        stroke: #1d1b18;
        stroke-miterlimit: 10;
      }
    </style>
  </defs>
  <g id="Lager_7" data-name="Lager 7">
    <g>
      <path class="cls-1" d="M280.28,142.02c-1.33,9-5.3,17.66-8.09,22.9-1.67,3.13-3.95,5.9-6.67,8.19l-17.42,14.64c-17.79,17.36-30.07,11.85-30.07,11.85-11.1-2.21-16.02-12.98-17.79-18.25-.75-2.2-1.86-4.26-3.25-6.12-2.78-3.75-5.29-7.31-7.14-9.97-2.15-3.09-3.63-6.58-4.37-10.28-1.49-7.51-3.44-18.47-3.44-18.47-1.14-4.27-1.9-9.12-2.27-11.83-.19-1.38-.15-2.78.11-4.15,2.55-13.7,2.16-14.08,2.16-14.08-.35-15.18.93-25.93,2.55-33.35,2.08-9.46,9.44-16.95,18.91-19.04,10.65-2.36,25.5-2.72,36.19,8.68,0,0,17.31,14.02,32.56,22.26,0,0,9.31,9.37,13.11,34.57,1.9,12.63-5.08,22.45-5.08,22.45,0,0,1.37,1.14,3.4,1.93"/>
      <path class="cls-1" d="M288.77,144.6c1.63-.27,3.32-1.09,4.9-2.83.05-.06.11-.12.16-.18"/>
      <path class="cls-1" d="M287.45,25.15c-6.23-5.53-13.39-6.71-20.34-9.12h-.01"/>
      <path class="cls-1" d="M322.49,305.98c23.89-4.55,10.62-47.01,10.62-47.01-8.34-26.93-9.86-61.81-9.86-61.81.38-70.53-17.82-133.85-17.82-133.85-1.49-15.45-6.96-26.53-14.23-34.46"/>
      <path class="cls-1" d="M272.25,85s14.22,6.37,25.59-.08"/>
      <path class="cls-1" d="M278.13,244.17c5.69-15.93,1.9-48.91,1.9-48.91,0-12.51,11.38-44.74,11.38-44.74,11.75-37.16,3.79-116.79,3.79-116.79"/>
      <path class="cls-1" d="M284.7,116.17s8.87,6.44,12.51-3.65"/>
      <path class="cls-1" d="M281.83,4.02l-2.41,2.94c-4.5,4.28-10.5,7.21-15.98,8.92-13.49,4.23-29.5-4.33-29.69-4.46-.28-.16-.55-.29-.8-.41-3.15-1.33-4.41,1.07-4.41,1.07-11.94,11.11-24.2,11.5-32.48,9.8-6.16-1.25-10.12-3.65-10.12-3.65,19.36-12.29,40.33-8.55,40.33-8.55,4.54-2.8,9.22-1.6,9.22-1.6,28.59-11.44,45.11-3.28,46.34-4.07Z"/>
      <path class="cls-1" d="M184.47,33.46l-.4-11.08c-1.47-2.54-.67-4.14-.67-4.14,1.6-2.67,17.83-8.29,17.83-8.29,0,0,13.72-3.14,25.08-1.44,0,0,1.1.27,1.26.37"/>
      <path class="cls-1" d="M228.54,12.09s1.26-2.4,4.41-1.07c.25.12.52.25.8.41"/>
      <path class="cls-1" d="M231.29,12.43c-.31-.13-.48-.2-.48-.2-7.61,10.15-22.43,12.68-22.43,12.68-4.74,1.21-11.53.42-15.76-.3"/>
      <path class="cls-1" d="M212.15,52.7s4.14-26.76,19.14-40.27c6.06,3.3,13.69,4.87,13.69,4.87,13.53,3.92,22.12-1.26,22.12-1.26h.01s9.05-3.42,12.85-6.81c0,0,.13,3.87,3.87,4.81l3.34,10.34,9.93,36.64"/>
      <path class="cls-1" d="M192.62,24.61h-.01c-2.32-.39-3.87-.76-3.87-.76l-1.46,2.53.13,2.81"/>
      <polyline class="cls-1" points="280.06 3.18 283.64 2.72 291.17 28.52 296.48 50.12"/>
      <path class="cls-1" d="M280.82,2.96c-.28.13-9.5-3.4-22.46-2.22,0,0-8.93.15-24.46,7.2"/>
      <path class="cls-1" d="M223.25,99.41s18.15-13.8,42.47,2.54"/>
      <path class="cls-1" d="M204.37,100.86s-12.34-10.16-21.78-2.9"/>
      <path class="cls-1" d="M208.73,104.85s-.73,18.88-9.44,36.3c0,0,8.35,9.44,24.32,3.99"/>
      <path class="cls-1" d="M229.42,112.11s17.79,6.53,28.68,0"/>
      <path class="cls-1" d="M204.74,110.66s-10.53,7.26-21.06-1.09"/>
      <path class="cls-1" d="M209.03,161.02c2.65,1.38,5.2,1.31,5.2,1.31,2.22-.42,4.3-3.75,4.3-3.75,2.18,2.18,17.58,1.46,17.58,1.46,0,0-2.71,5.15-9.8,4.94l-4.98.42s-1.8,2.86-11.86,1.06c0,0-3.6-.74-5.82,2.12,0,0,3.07,5.29,9.74,4.87,0,0,16.91-.75,22.21-12.19"/>
      <path class="cls-1" d="M125.42,132.89s-5.52-2.85-6.59-4.45l4.98-1.78,4.75,2.36"/>
      <path class="cls-1" d="M126.6,127.57s1.58-4.56,1.77-6.69c0,0-.09-9.67,6.42-6.97,0,0,4.93,1.67,4.83,10.51"/>
      <path class="cls-1" d="M192.62,24.61h-.01c-2.94,2.51-5.7,5.43-8.14,8.83-4.34,6-7.69,13.48-9.33,22.81,0,0-.71,5.81-.53,16.01,0,0-2.18,38.31-9.5,70.53l-11.57-.22-15.94,8.42v-2.73c3.19-8.88,16.16-7.97,16.16-7.97,3.19,1.82,6.15.46,6.15.46,1.37-9.33-5.46-13.43-5.46-13.43-7.97-3.41-19.58-2.05-19.58-2.05-4.74.86-19.81,20.49-19.81,20.49-10.7,7.29-12.29,35.74-12.29,35.74,0,0-9.87,37.79,11.79,52.42,1.31.89,2.49,1.95,3.73,2.95,7.1,5.71,26.19,22.43,32.6-.92.97-3.54.78-7.29-.47-10.74-1.7-4.69-4.44-11.64-7.04-15.42"/>
      <path class="cls-1" d="M165.11,142.79s9.69,3.08,4.25,12.76l-1.54.38s4.21,1.35,3.93,7.68c0,0-1.56,6.3-6.18,8.83,0,0-12.37,11.5-21.52,13.24"/>
      <path class="cls-1" d="M167.83,170.95s1.39,5.49,0,8.02-7.75,9.76-9.32,15.34c0,0-1.39,2.09-3.49,3.49l-15.68,15.95s-5.28,3.35-5.9,6.66l-10.33,20.25"/>
      <line class="cls-1" x1="148.81" y1="140.53" x2="155.31" y2="142.65"/>
      <line class="cls-1" x1="159.92" y1="140.75" x2="165.6" y2="142.97"/>
      <path class="cls-1" d="M164.86,142.68s31.76,9.58,37,13.41c0,0,13.22,8.98,15.23,10.79"/>
      <path class="cls-1" d="M170.21,147.11s23.38,7.46,29.53,11.39c0,0,8.36,6.55,8.46,7.56"/>
      <path class="cls-1" d="M203.65,168.58s-1.4-.05,2.11-5.03"/>
      <path class="cls-1" d="M253.61,147.3s3.84,2.64,3.36,5.76"/>
      <path class="cls-1" d="M206.89,268.38c-.09,1.83-.19,3.62-.31,5.4h0"/>
      <path class="cls-1" d="M164.52,184.21c-3.64,3.92.56,103.85.56,103.85,6.16,43.95,36.95,36.68,36.95,36.68-7.84-7.28-4.2-12.88-4.2-12.88,4.55-5.99,7.08-18.4,8.37-33.09"/>
      <path class="cls-1" d="M206.93,226.37c-.21-5.91-.48-11.42-.76-16.25-.65-11.53-1.34-19.19-1.34-19.19"/>
      <path class="cls-1" d="M206.17,210.12s8.39,5.97,19.15,7.54c8.77,1.28,19.11-.36,27.8-10.5"/>
      <polyline class="cls-1" points="225.32 217.66 223.72 223.41 226.53 224.29"/>
      <path class="cls-1" d="M267.3,171.55s-4.91,13.02-9.47,24.43c-2.9,7.26-5.66,13.87-6.93,16.05l-11.82,22.31"/>
      <line class="cls-1" x1="257.83" y1="195.98" x2="259.06" y2="228.37"/>
      <path class="cls-1" d="M206.89,268.38c-3.09-.66-8.05-3.44-8.93-14.22-1.3-15.86-2.22-26.93-2.22-26.93l11.62-.9"/>
      <path class="cls-1" d="M254.21,268.55c-1.29,4.24-4.24,3.13-4.24,3.13l-40.58-3.13s-1.04.15-2.5-.17"/>
      <path class="cls-1" d="M206.93,226.37c9.01-.47,22.37-.7,35.98.76,8.08.87,16.26,2.34,23.66,4.71l-2.59,11.99"/>
      <path class="cls-1" d="M206.22,278.58c0,.06-.01.13-.02.19-1.37-.16-2.16-.26-2.16-.26l2.54-4.72"/>
      <path class="cls-1" d="M206.2,278.77c8.26.97,37.78,4.24,45.06,2.5"/>
      <polyline class="cls-1" points="206.58 273.79 206.57 273.82 209.39 268.55"/>
      <line class="cls-1" x1="272.39" y1="297.39" x2="277.03" y2="291.16"/>
      <path class="cls-1" d="M281.92,291.57s-31.62-7.34-33.26-12.24-.17-7.45,1.3-7.65,25.81,7.36,37.91,7.01c0,0,1.08.12,6.11.36,0,0-20.97-4.79-22.89-5.99,0,0-17.98-3.72-20.73-7.43,0,0-3.72-6.11,1.68-8.27,0,0,25.41,3.95,27.68,3.48,0,0,13.9,2.4,16.42,3.24l-30.44-7.31s-12.1.36-13.9-1.56c0,0-4.67-8.51,3.36-10.19,0,0,5.99-1.68,24.45-.36,0,0,10.31,2.16,13.18,5.75"/>
      <path class="cls-1" d="M279.61,244.65s6.47-11.39,7.43-15.82.84-14.14,2.16-16.3,5.87-4.19,7.31.96,3.6,5.51,3.95,14.02c0,0,.12,12.82-1.68,17.26l1.45,6.83s10.27,3.16,6.48,14.06c0,0,6.8,11.85-.95,16.75,0,0,.42,14.77-2.67,19.07"/>
      <path class="cls-1" d="M305.77,282.42s14.28,23.82,18.33,24.83c0,0,25.47,26.16,24.3,31.03"/>
      <path class="cls-1" d="M323.09,183.59s24.39,12.43,24.86,34.48.23,20.4.23,20.4c0,0,14.78,35.88,13.37,49.72l.23,29.32s.35,56.33-4.99,76.34c0,0-11.12,11.12-23.12-4.45,0,0-67.41-51.56-79.66-54.74-.65-.17-1.16-.66-1.34-1.31-1.98-6.82-11.18-41.94,6.17-48.19,4.39-1.58,4.2,5.07,4.2,5.07,4.4.27,9.35,7.15,9.35,7.15,1.37,10.45,7.42,12.92,7.42,12.92l7.15,19.8"/>
      <path class="cls-1" d="M102.78,181.5s-43.38,52.13-48.05,59.32-29.48,22.29-39.19,47.1c0,0-20.25,40.17-13.74,53.59.76,1.57,1.5,3.15,2.03,4.81,2.01,6.27,7.74,20.65,19.66,27.78,3.54,2.12,7.73,2.86,11.8,2.17,9.32-1.59,28.35-4.37,36.04-9.64.92-.63,1.67-1.17,2.1-1.77,4.42-6.12,28.49-13.86,31.67-38.45.35-2.7.98-5.35,2.03-7.86,1.13-2.72,2.53-6.88,3.24-12.08.62-4.55,2.44-8.85,5.4-12.36,9.5-11.23,29.81-37.05,35.14-58.17"/>
      <path class="cls-1" d="M164.1,262.05l-27.15,12.84s9.93,66.56,21.31,93.13"/>
      <path class="cls-1" d="M230.37,281.03s-26.86,76.49-26.86,83.49"/>
      <path class="cls-1" d="M187.16,323.65s-4.38,36.78-10.51,43.21"/>
      <path class="cls-1" d="M196.69,234.05s7.88,5.01,9.6,3.87,2.72-6.59,9.31-3.72c5.12,2.23,14.23.3,18.03-.67,1.11-.28,2.28-.23,3.36.17,2.74,1.02,8.41,2.81,12.7,2.08l3.09-.53c1.61-.27,3.26-.03,4.69.75,1.5.82,3.84,1.81,6.83,2.21"/>
      <path class="cls-1" d="M167.82,155.92s-25.34,14.39-28.67,14.55"/>
      <path class="cls-1" d="M289.1,146.6c-.58,8.73-5.53,10.77-5.53,10.77-3.39,1.94-4.65-1.65-3.39-2.23,1.26-.59,1.55-3.79,2.52-8.54.23-1.15.58-2.01.98-2.65,1.23-2.02,2.9-1.91,2.9-1.91,1.21-.33,1.86,1.19,2.19,2.56.26,1.04.33,2,.33,2Z"/>
      <path class="cls-1" d="M232.45,362.44l20.49-28.39c1.29,1.22,7.5,1.69,13.34,2.29,7.29.74,14.61-1.77,20.39-6.29,21-16.43,16.41-28.98,16.41-28.98"/>
    </g>
  </g>
</svg>