<svg width="18" height="49" viewBox="0 0 18 49" fill="none" xmlns="http://www.w3.org/2000/svg">
<g clip-path="url(#clip0_3597_738)">
<path d="M11.6829 48.6786C12.6723 48.9433 14.0613 49.1323 15.6406 48.8488C17.0106 48.603 18 47.3931 18 45.9942V6.29512C18 6.29512 17.4863 1.68247 15.3362 0.68054C15.3362 0.68054 14.0043 -0.359197 11.0169 0.113411C9.68501 0.321358 8.52434 1.17205 7.91546 2.36302C5.55605 7.03239 -0.665939 20.152 0.0571057 27.7515C0.0571057 27.7515 1.50319 31.2677 4.92814 28.1863L8.88586 20.5868L9.45668 19.4903L10.0846 46.6558C10.1036 47.6011 10.7506 48.4329 11.6639 48.6786H11.6829Z" fill="#0026FF"/>
</g>
<defs>
<clipPath id="clip0_3597_738">
<rect width="18" height="49" fill="white"/>
</clipPath>
</defs>
</svg>
