<?xml version="1.0" encoding="UTF-8"?>
<svg id="Lager_2" data-name="Lager 2" xmlns="http://www.w3.org/2000/svg" viewBox="0 0 282.62 467.74">
  <defs>
    <style>
      .cls-1 {
        fill: none;
        stroke: #1d1b18;
        stroke-miterlimit: 10;
      }
    </style>
  </defs>
  <g id="Lager_6" data-name="Lager 6">
    <g>
      <path class="cls-1" d="M91.15,95.89c21.35,5.04,31.73-.91,31.73-.91-15.41-15.56-31.73.91-31.73.91ZM74.33,143.31l-7.17,2.24-4.71-1.12s-6.72,1.79-9.19,3.59c0,0-.9,1.56,15.02,3.58,0,0,12.56-1.57,15.47-2.02,0,0,8.07,1.13,10.31.45,2.24-.67,7.15-2.32,7.15-2.32,0,0-21.27-4.18-26.88-4.4ZM58.07,91.82s-.02-.02-.03-.02c-.4-.25-.84-.45-1.31-.57-9.73-3.77-14.1,6.95-14.1,6.95,10.22,5.04,22.15-1.3,22.15-1.3-2.45-2.43-4.69-4.05-6.71-5.06ZM93.25,192.22c5.41-1.4,10.55-3.19,15.26-5.12-.16-.07-.25-.11-.25-.11,10.51-8.37,17.8-8.58,17.8-8.58,0,.01,0,.02,0,.03,6.66-3.85,10.62-6.84,10.62-6.84l16.72-26.61c1.13,1.95,2.45,3.24,3.89,4.02M65.66,195.22c1.39-2.41,2.82-5.88,2.59-9.71,0,0,5.48-.44,11.83-6.14,0,0,17.32,6.14,18.63-1.97,0,0,.88-3.51-15.34-8.99l-22.57,6.58-6.85,10.54c-1-1.79-2.02-3.9-3.03-6.39,0,0-12.39-12.27-17.24-34.53-2-9.15-2.72-20-.78-32.38,0,0,5.81-14.29,6.48-16.65l-1.52-15.21s.31-5.59,2.3-12.99c3.44-12.82,11.94-31.04,32.67-34.9,32.69-6.08,44.09-6.84,72.98,31.93,0,0,15.2,36.49,13.68,49.41,0,0,6.08-11.4,21.29-12.92,0,0,8.08,7.4,2.28,14.44,0,0,.61,13.2-3.95,22.32,0,0-6.14,10.05-14.41,11.77"/>
      <path class="cls-1" d="M64.78,96.88s-11.93,6.34-22.15,1.3c0,0,4.37-10.72,14.1-6.95.47.12.91.32,1.31.57.01,0,.02.01.03.02,2.02,1.01,4.26,2.63,6.71,5.06Z"/>
      <path class="cls-1" d="M94.06,150.03c-2.24.68-10.31-.45-10.31-.45-2.91.45-15.47,2.02-15.47,2.02-15.92-2.02-15.02-3.58-15.02-3.58,2.47-1.8,9.19-3.59,9.19-3.59l4.71,1.12,7.17-2.24"/>
      <path class="cls-1" d="M122.88,94.98s-10.38,5.95-31.73.91c0,0,16.32-16.47,31.73-.91Z"/>
      <path class="cls-1" d="M64.78,96.88s-11.93,6.34-22.15,1.3c0,0,4.37-10.72,14.1-6.95.43.16.86.35,1.31.57.01,0,.02.01.03.02,2.02,1.01,4.26,2.63,6.71,5.06Z"/>
      <path class="cls-1" d="M122.88,94.98s-10.38,5.95-31.73.91c0,0,16.32-16.47,31.73-.91Z"/>
      <path class="cls-1" d="M94.06,150.03c-2.24.68-10.31-.45-10.31-.45-2.91.45-15.47,2.02-15.47,2.02-15.92-2.02-15.02-3.58-15.02-3.58,2.47-1.8,9.19-3.59,9.19-3.59l4.71,1.12,7.17-2.24"/>
      <path class="cls-1" d="M97.71,148.93s-10.42,8.46-22.61,9.84c0,0-25.38,1.05-20.75-9.49"/>
      <ellipse class="cls-1" cx="110.02" cy="93.26" rx="4.9" ry="4.22"/>
      <path class="cls-1" d="M60.09,95.38c0,2.39-2.08,4.32-4.65,4.32s-4.66-1.93-4.66-4.32,2.09-4.32,4.66-4.32c.45,0,.88.06,1.29.17.47.12.91.32,1.31.57.01,0,.02.01.03.02,1.22.78,2.02,2.08,2.02,3.56Z"/>
      <path class="cls-1" d="M85.67,78.11s29.97-15.4,47.82,6.22"/>
      <path class="cls-1" d="M61.59,80.24s-11.75-8.08-23.73.13"/>
      <path class="cls-1" d="M67.48,86.84s0,6.45-2.15,10.74c0,0-4.13,7.23-6.68,13.74-.27.7-.62,1.36-1.07,1.97-2.08,2.85-8.06,12.26.31,16.02,0,0,7.11.99,16.69.5"/>
      <path class="cls-1" d="M39.38,95.58S2.2,50.48,59.91,13.4c0,0,12.26-8.67,32.3-12.56,0,0-24.39,3.77-19.37,31.64"/>
      <path class="cls-1" d="M160.43,216.66c-4.66-16.11-9.8-22.63-6.59-69.17"/>
      <path class="cls-1" d="M92.2.84s65.51-8.81,88.53,62.66l.89,3.58s8.48,60.61,16.11,75.02c0,0,36.49,56.78,58.49,57.36,0,0-20.99,40.19-44.75,44.3,0,0-26.63,61.5-63.03,64.4,0,0,21.01-26.88,17.32-64.07,0,0-1.76-19.27-5.45-27.71"/>
      <path class="cls-1" d="M162.56,222.16s-30.72,35.99-64.41,11.69"/>
      <path class="cls-1" d="M43.31,267.49l-5.68-17.24c-24.09-28.21-3.92-105.77-3.92-105.77"/>
      <path class="cls-1" d="M25.43,196.42S-7.01,214.06,2.12,250.91c0,0,19.21,121.26,16.06,137.95,0,0-4.72,26.46,18.58,54.49,0,0,25.51,45.04,39.05,8.19,0,0,16.06-27.72,14.17-49.13,0,0-.94-41.26-10.08-82.83,0,0-4.41-47.87,5.98-66.46,0,0,14.17-19.21,13.86-26.46"/>
      <path class="cls-1" d="M76.14,208.08s6.58,3.07,12.71.66c0,0,2.63,7.45,8.99,11.18,0,0,5.04,21.7,14.03,15.56,0,0,2.19-4.16-3.07-21.92"/>
      <path class="cls-1" d="M73.95,205.89s7.01,1.32,11.62-1.97l32.88,12.71s7.45,2.41,7.23-4.16c0,0-14.25-17.1-32.22-20.16l-7.23-2.85-18.29.27"/>
      <path class="cls-1" d="M31.9,357.3c.42-6,7.26-42.85,7.26-42.85,2.2-3.63,1.55-37.44,1.55-37.44-.9-3.37.38-5.21.38-5.21,3.22-3.03,3.28-8.07,3.28-8.07,1.33-3.28.65-16.41.65-18.6s-3.51-46.03-3.51-46.03c3.07-8.11,10.74-10.96,10.74-10.96l1.7-2.61"/>
      <path class="cls-1" d="M65.66,195.22c-1.24,2.13-2.45,3.44-2.45,3.44"/>
      <path class="cls-1" d="M119.7,193.52c4.04,2.85,7.85,6.36,8.94,9.99,0,0-5.48,4.21-9.76,2.19h-.01s-.07-.03-.1-.05"/>
      <path class="cls-1" d="M119.7,193.52c-4.84-3.41-10.02-5.87-11.19-6.42-.16-.07-.25-.11-.25-.11,10.51-8.37,17.8-8.58,17.8-8.58,0,.01.01.02.01.03,1.16,2.67-5.58,13.8-6.37,15.08Z"/>
      <path class="cls-1" d="M119.7,193.52c-.04.08-.07.12-.07.12"/>
      <path class="cls-1" d="M78.57,209.02s-7.63,7.16-21.65,6.7"/>
      <path class="cls-1" d="M70.79,213.54s8.1,11.99,5.92,17.91"/>
      <path class="cls-1" d="M251.84,205.28l14.59,7.98s16.73,35.56,13.88,54.06c-2.85,18.5,12,115.26-13.13,190.19"/>
      <path class="cls-1" d="M184.19,467.49c9.96-17.55,49.8-52.64,49.8-52.64l-3.32-36.04s-3.68-54.63.71-63.39"/>
      <path class="cls-1" d="M256.68,199.31s1.54,1.93.93,9.23"/>
      <path class="cls-1" d="M166.23,159.98s-6.63,8.9-11.1,2.64c0,0-.66-8.32,3.09-15.08.62-1.11,1.36-2.19,2.24-3.17,0,0,2.41.4,4.13,3.92,1.14,2.31,1.97,5.95,1.64,11.69Z"/>
    </g>
  </g>
</svg>