<?xml version="1.0" encoding="UTF-8"?>
<svg id="Lager_2" data-name="Lager 2" xmlns="http://www.w3.org/2000/svg" viewBox="0 0 209.77 280.9">
  <defs>
    <style>
      .cls-1 {
        fill: none;
        stroke: #1d1d1b;
        stroke-miterlimit: 10;
      }
    </style>
  </defs>
  <g id="Lager_4" data-name="Lager 4">
    <g>
      <path class="cls-1" d="M165.01,135.59l-.55,6.74s-45.07,5.72-49.83,6.08-14.29-8.29-28.57-9.52"/>
      <path class="cls-1" d="M173.71,136.59s-2.11,23.56.42,31.46,2.26,26.51,1.41,29.05,1.97,27.36-2.54,36.1c0,0-7.35,33.83-6.62,43.66"/>
      <path class="cls-1" d="M194.98,134.24s12.36,2.91,14.29,45.55l-6.03,84.55"/>
      <path class="cls-1" d="M51.56,276.82s0-48.54-3.71-54.95c0,0-8.09,50.9-28.99,57.64,0,0-8.76,6.07-17.19-13.48,0,0-3.03-27.98.67-34.05,0,0,30.34-48.54,30-54.27s-7.42-16.85-7.42-22.25c0,0,2.29-1.18.12-3.92,0,0-1.71-3.97,4.34-7.19,0,0-.68-4.48,3.08-7.56,0,0,1.57-11.1,6.12-16.27s7.5-6.24,9.72-3.91-3.8,6.13-3.8,6.13c0,0-6.24,10.67-3.28,13.63"/>
      <path class="cls-1" d="M36.69,137.53s11.63-3.91,23.88.42c0,0,3.38,4.76-4.02,5.81,0,0-22.19.63-23.46,6.45"/>
      <path class="cls-1" d="M38.68,146.31s27.07-3.7,27.18.52-8.02,5.85-9.71,5.54"/>
      <path class="cls-1" d="M35.42,159.41s15.43-10.36,20.19-10.36-2.43,6.87-2.43,6.87l-13,10.99"/>
      <path class="cls-1" d="M43.04,166.8s4.7,2.45,5.49,9.31"/>
      <path class="cls-1" d="M36.79,249.95c3.99-7.88,4.69-37.19,4.58-36.54-.49-3.62,5.1-30.26,5.1-30.26,10.95-12.47,11.38-30.66,11.38-30.66"/>
      <path class="cls-1" d="M150.06,128.56s0,33.95,23.4,44.82c0,0-7.58,16.15-30.98-9.55,0,0-11.99-25.26-17.56-56.81-.34-1.9-.65-3.83-.93-5.78-1.98-13.42-2.65-27.74-.68-41.58-26.55-.36-43-19.21-47.48-19.36.69-3.92,1.62-7.47,2.71-10.68C86.4,6.56,102.95,1.1,104.17.72c.02,0,.04,0,.05,0,.02-.01.03-.01.03-.01,0,0,39.55-5.6,43.5,42.84,3.96,48.44,27.02,82.06,49.76,89.97,0,0-35.92,8.89-47.45-4.95Z"/>
      <path class="cls-1" d="M104.17.72c-1.22.38-17.77,5.84-25.63,28.9-1.09,3.21-2.02,6.76-2.71,10.68-.29-.01-.54.06-.73.23,0,0-10.22,1.07-12.99,10.42-.67,2.25-.91,4.97-.47,8.27C46.09,9.29,101.72,1.04,104.17.72Z"/>
      <line class="cls-1" x1="61.64" y1="58.36" x2="61.49" y2="88.94"/>
      <line class="cls-1" x1="124" y1="101.25" x2="123.99" y2="101.24"/>
      <path class="cls-1" d="M104.22.71s-.03,0-.05.01"/>
      <ellipse class="cls-1" cx="47.63" cy="194.63" rx="9.22" ry="23.43" transform="translate(-152.56 203.2) rotate(-78.7)"/>
      <path class="cls-1" d="M52.69,186.12s-1.17-1.37,1.56-10.75,8.02-24.24,8.02-24.24c0,0,16.42,2.93,23.07-10.75s5.47-26.98,5.47-26.98h0l-2.15-17.01s-8.8-10.17-26-8.8c0,0-15.42,22.36-15.62,28.03"/>
      <path class="cls-1" d="M45.77,121.8s-2.37,10.44-1.69,14"/>
      <path class="cls-1" d="M58.84,152.15s-7.22,25.93-8.67,27.5c0,0-.48,3.5-3.98,5.43"/>
      <line class="cls-1" x1="173.01" y1="233.2" x2="175.14" y2="262.83"/>
      <path class="cls-1" d="M92.79,123.17s-.7,9.49-6,14.03"/>
      <ellipse class="cls-1" cx="101.28" cy="71.6" rx="2.66" ry="2.37"/>
      <ellipse class="cls-1" cx="74.54" cy="72.31" rx="2.07" ry="2.22"/>
      <line class="cls-1" x1="73" y1="67.82" x2="62.7" y2="66.28"/>
      <path class="cls-1" d="M86.52,67.82s13.75-7.54,22.17-1.11"/>
      <path class="cls-1" d="M124.92,107.02c-8.41,6.39-20.88,13.58-23.96,15.12-4.59,2.29-9.94.38-9.94.38,0,0-1.08-1.31-2.79-3.48-6.26-7.98-20.93-27.59-20.93-36.31,0-11.1-1.15-11.48-1.15-11.48l-3.45-4.97s-1.98-8.77-.59-15.33c2.77-9.35,12.99-10.42,12.99-10.42.19-.17.44-.24.73-.23,4.48.15,20.93,19,47.48,19.36-1.97,13.84-1.3,28.16.68,41.58.28,1.95.59,3.88.93,5.78Z"/>
      <path class="cls-1" d="M91.83,74.57s2.02-9.46,14.26-3.91c0,0,0,7.44-14.26,3.91Z"/>
      <path class="cls-1" d="M78.34,73.94s-4.29-7.06-10.85-4.04c0,0,3.15,10.6,10.85,4.04Z"/>
      <path class="cls-1" d="M62.53,64.29s20.42,4,15.94,15.87-5.45,14.89-4.57,15.96,6.91,2.24,8.95,1.07"/>
      <path class="cls-1" d="M100.54,103.71s-5.8,1.82-11.66-.15c-1.9-.64-3.59,1.94-3.59,1.94,0,0-1.05-2.24-2.69-2.24s-4.33,1.35-4.33,1.35c0,0,3.21,6.75,8.97,6.28,0,0,8.67-.15,13.3-7.17Z"/>
      <path class="cls-1" d="M100.54,103.71s-15.17,7.64-22.27.9"/>
    </g>
  </g>
</svg>