<svg width="25" height="49" viewBox="0 0 25 49" fill="none" xmlns="http://www.w3.org/2000/svg">
<g clip-path="url(#clip0_3597_752)">
<path d="M3.42354 10.7605C1.44156 10.4768 0.247865 8.49058 1.03615 6.70083C2.95057 2.4447 7.99561 -4.10318 19.7073 3.47054C19.7073 3.47054 30.9686 10.9351 16.7794 18.3124C16.7794 18.3124 10.338 22.5249 18.7389 23.0051C20.428 23.1142 22.0497 23.8345 23.1307 25.1004C25.1353 27.4576 26.7343 32.0848 21.3515 40.0732C21.3515 40.0732 17.1172 49.2621 6.35147 48.9783C4.54967 48.9347 2.99561 47.6906 2.52264 45.9881C2.22985 44.9623 2.07219 43.7182 2.27489 42.3431C2.54516 40.5316 4.2794 38.5235 6.10372 37.9779C8.40102 37.2794 12.1398 35.4897 15.4731 30.8843C15.8785 30.3169 15.4506 29.5311 14.7298 29.6184C10.4956 30.0768 0.0451625 30.7316 0.000117493 26.4973C0.000117493 26.4973 -0.720603 19.0327 8.64877 15.9333C9.66228 15.5841 10.4731 14.7766 10.7884 13.7725C10.9235 13.3578 11.0362 12.8995 11.0812 12.4193C11.2614 10.8915 9.6848 9.73468 8.22084 10.2585C7.09471 10.6732 5.42804 11.0224 3.42354 10.7605Z" fill="#0026FF"/>
</g>
<defs>
<clipPath id="clip0_3597_752">
<rect width="25" height="49" fill="white"/>
</clipPath>
</defs>
</svg>
