<svg width="24" height="72" viewBox="0 0 24 72" fill="none" xmlns="http://www.w3.org/2000/svg">
<g clip-path="url(#clip0_3597_745)">
<path d="M10.628 12.2144C10.628 12.2144 6.11278 16.747 4.75822 35.4955C4.75822 35.4955 2.58745 44.2958 0.0693624 35.4955C0.0693624 35.4955 -1.77145 6.53399 12.6424 0C12.6424 0 20.8566 1.14786 16.3241 22.9867C16.3241 22.9867 12.7987 40.3812 11.531 53.6847C11.3921 55.068 12.0173 56.363 12.8508 56.363H20.5788C22.0028 56.363 23.2705 57.923 23.7047 60.2187C24.0694 62.1318 24.2257 64.5747 23.5657 67.1059C23.1316 68.7835 22.1938 69.9314 21.1345 70.1668C17.9391 70.8438 10.0896 72.1977 6.04331 69.7253C4.75822 68.9307 4.08094 66.6055 4.49773 64.4275C6.63376 53.4787 13.9449 14.6573 10.628 12.2144Z" fill="#0026FF"/>
</g>
<defs>
<clipPath id="clip0_3597_745">
<rect width="24" height="71.1381" fill="white"/>
</clipPath>
</defs>
</svg>
